<svg id="visual" viewBox="0 0 1024 500" width="1024" height="500" xmlns="http://www.w3.org/2000/svg" xmlns:xlink="http://www.w3.org/1999/xlink" version="1.1"><path d="M0 51L102 51L102 96L205 96L205 81L307 81L307 96L410 96L410 61L512 61L512 61L614 61L614 41L717 41L717 71L819 71L819 86L922 86L922 86L1024 86L1024 46L1024 0L1024 0L922 0L922 0L819 0L819 0L717 0L717 0L614 0L614 0L512 0L512 0L410 0L410 0L307 0L307 0L205 0L205 0L102 0L102 0L0 0Z" fill="#0066ff"></path><path d="M0 136L102 136L102 186L205 186L205 136L307 136L307 176L410 176L410 161L512 161L512 141L614 141L614 176L717 176L717 166L819 166L819 141L922 141L922 151L1024 151L1024 166L1024 44L1024 84L922 84L922 84L819 84L819 69L717 69L717 39L614 39L614 59L512 59L512 59L410 59L410 94L307 94L307 79L205 79L205 94L102 94L102 49L0 49Z" fill="#0076ff"></path><path d="M0 161L102 161L102 231L205 231L205 171L307 171L307 216L410 216L410 206L512 206L512 206L614 206L614 211L717 211L717 231L819 231L819 201L922 201L922 206L1024 206L1024 196L1024 164L1024 149L922 149L922 139L819 139L819 164L717 164L717 174L614 174L614 139L512 139L512 159L410 159L410 174L307 174L307 134L205 134L205 184L102 184L102 134L0 134Z" fill="#0084ff"></path><path d="M0 211L102 211L102 286L205 286L205 216L307 216L307 251L410 251L410 256L512 256L512 271L614 271L614 256L717 256L717 266L819 266L819 251L922 251L922 236L1024 236L1024 261L1024 194L1024 204L922 204L922 199L819 199L819 229L717 229L717 209L614 209L614 204L512 204L512 204L410 204L410 214L307 214L307 169L205 169L205 229L102 229L102 159L0 159Z" fill="#0092ff"></path><path d="M0 306L102 306L102 381L205 381L205 286L307 286L307 316L410 316L410 421L512 421L512 436L614 436L614 326L717 326L717 331L819 331L819 421L922 421L922 381L1024 381L1024 371L1024 259L1024 234L922 234L922 249L819 249L819 264L717 264L717 254L614 254L614 269L512 269L512 254L410 254L410 249L307 249L307 214L205 214L205 284L102 284L102 209L0 209Z" fill="#009eff"></path><path d="M0 501L102 501L102 501L205 501L205 501L307 501L307 501L410 501L410 501L512 501L512 501L614 501L614 501L717 501L717 501L819 501L819 501L922 501L922 501L1024 501L1024 501L1024 369L1024 379L922 379L922 419L819 419L819 329L717 329L717 324L614 324L614 434L512 434L512 419L410 419L410 314L307 314L307 284L205 284L205 379L102 379L102 304L0 304Z" fill="#00aaff"></path></svg>