<svg id="visual" viewBox="0 0 800 900" width="800" height="900" xmlns="http://www.w3.org/2000/svg" xmlns:xlink="http://www.w3.org/1999/xlink" version="1.1"><path d="M0 199L19 192.3C38 185.7 76 172.3 114.2 165.3C152.3 158.3 190.7 157.7 228.8 164.2C267 170.7 305 184.3 343 184.2C381 184 419 170 457 169C495 168 533 180 571.2 179.3C609.3 178.7 647.7 165.3 685.8 160.7C724 156 762 160 781 162L800 164L800 0L781 0C762 0 724 0 685.8 0C647.7 0 609.3 0 571.2 0C533 0 495 0 457 0C419 0 381 0 343 0C305 0 267 0 228.8 0C190.7 0 152.3 0 114.2 0C76 0 38 0 19 0L0 0Z" fill="#4facf7"></path><path d="M0 118L19 128.2C38 138.3 76 158.7 114.2 161C152.3 163.3 190.7 147.7 228.8 138.3C267 129 305 126 343 123.5C381 121 419 119 457 118.8C495 118.7 533 120.3 571.2 131.5C609.3 142.7 647.7 163.3 685.8 160.7C724 158 762 132 781 119L800 106L800 0L781 0C762 0 724 0 685.8 0C647.7 0 609.3 0 571.2 0C533 0 495 0 457 0C419 0 381 0 343 0C305 0 267 0 228.8 0C190.7 0 152.3 0 114.2 0C76 0 38 0 19 0L0 0Z" fill="#2b9dfc"></path><path d="M0 84L19 93.7C38 103.3 76 122.7 114.2 131.2C152.3 139.7 190.7 137.3 228.8 134.2C267 131 305 127 343 125C381 123 419 123 457 117.3C495 111.7 533 100.3 571.2 98.2C609.3 96 647.7 103 685.8 110C724 117 762 124 781 127.5L800 131L800 0L781 0C762 0 724 0 685.8 0C647.7 0 609.3 0 571.2 0C533 0 495 0 457 0C419 0 381 0 343 0C305 0 267 0 228.8 0C190.7 0 152.3 0 114.2 0C76 0 38 0 19 0L0 0Z" fill="#008cff"></path><path d="M0 82L19 80.3C38 78.7 76 75.3 114.2 77.8C152.3 80.3 190.7 88.7 228.8 88.5C267 88.3 305 79.7 343 80.8C381 82 419 93 457 95.7C495 98.3 533 92.7 571.2 83.7C609.3 74.7 647.7 62.3 685.8 60C724 57.7 762 65.3 781 69.2L800 73L800 0L781 0C762 0 724 0 685.8 0C647.7 0 609.3 0 571.2 0C533 0 495 0 457 0C419 0 381 0 343 0C305 0 267 0 228.8 0C190.7 0 152.3 0 114.2 0C76 0 38 0 19 0L0 0Z" fill="#007aff"></path><path d="M0 61L19 56.8C38 52.7 76 44.3 114.2 38.3C152.3 32.3 190.7 28.7 228.8 33.5C267 38.3 305 51.7 343 52.3C381 53 419 41 457 36.3C495 31.7 533 34.3 571.2 39.2C609.3 44 647.7 51 685.8 49.2C724 47.3 762 36.7 781 31.3L800 26L800 0L781 0C762 0 724 0 685.8 0C647.7 0 609.3 0 571.2 0C533 0 495 0 457 0C419 0 381 0 343 0C305 0 267 0 228.8 0C190.7 0 152.3 0 114.2 0C76 0 38 0 19 0L0 0Z" fill="#0066ff"></path></svg>