<svg id="visual" viewBox="0 0 800 900" width="800" height="900" xmlns="http://www.w3.org/2000/svg" xmlns:xlink="http://www.w3.org/1999/xlink" version="1.1"><path d="M0 706L19 713.7C38 721.3 76 736.7 114.2 734.5C152.3 732.3 190.7 712.7 228.8 711.5C267 710.3 305 727.7 343 726.2C381 724.7 419 704.3 457 704.5C495 704.7 533 725.3 571.2 728C609.3 730.7 647.7 715.3 685.8 705.3C724 695.3 762 690.7 781 688.3L800 686L800 901L781 901C762 901 724 901 685.8 901C647.7 901 609.3 901 571.2 901C533 901 495 901 457 901C419 901 381 901 343 901C305 901 267 901 228.8 901C190.7 901 152.3 901 114.2 901C76 901 38 901 19 901L0 901Z" fill="#b14bdd"></path><path d="M0 769L19 765.3C38 761.7 76 754.3 114.2 755.3C152.3 756.3 190.7 765.7 228.8 769.3C267 773 305 771 343 768.2C381 765.3 419 761.7 457 752.8C495 744 533 730 571.2 729.2C609.3 728.3 647.7 740.7 685.8 752.2C724 763.7 762 774.3 781 779.7L800 785L800 901L781 901C762 901 724 901 685.8 901C647.7 901 609.3 901 571.2 901C533 901 495 901 457 901C419 901 381 901 343 901C305 901 267 901 228.8 901C190.7 901 152.3 901 114.2 901C76 901 38 901 19 901L0 901Z" fill="#a836d9"></path><path d="M0 786L19 788.3C38 790.7 76 795.3 114.2 794.7C152.3 794 190.7 788 228.8 781C267 774 305 766 343 771.7C381 777.3 419 796.7 457 805.3C495 814 533 812 571.2 806.2C609.3 800.3 647.7 790.7 685.8 784.8C724 779 762 777 781 776L800 775L800 901L781 901C762 901 724 901 685.8 901C647.7 901 609.3 901 571.2 901C533 901 495 901 457 901C419 901 381 901 343 901C305 901 267 901 228.8 901C190.7 901 152.3 901 114.2 901C76 901 38 901 19 901L0 901Z" fill="#9c27ce"></path><path d="M0 796L19 803.3C38 810.7 76 825.3 114.2 828.2C152.3 831 190.7 822 228.8 816.2C267 810.3 305 807.7 343 808.8C381 810 419 815 457 817.5C495 820 533 820 571.2 815.7C609.3 811.3 647.7 802.7 685.8 805.7C724 808.7 762 823.3 781 830.7L800 838L800 901L781 901C762 901 724 901 685.8 901C647.7 901 609.3 901 571.2 901C533 901 495 901 457 901C419 901 381 901 343 901C305 901 267 901 228.8 901C190.7 901 152.3 901 114.2 901C76 901 38 901 19 901L0 901Z" fill="#8b23b8"></path><path d="M0 841L19 844.7C38 848.3 76 855.7 114.2 858.5C152.3 861.3 190.7 859.7 228.8 855.3C267 851 305 844 343 846.8C381 849.7 419 862.3 457 864.3C495 866.3 533 857.7 571.2 855.3C609.3 853 647.7 857 685.8 859.8C724 862.7 762 864.3 781 865.2L800 866L800 901L781 901C762 901 724 901 685.8 901C647.7 901 609.3 901 571.2 901C533 901 495 901 457 901C419 901 381 901 343 901C305 901 267 901 228.8 901C190.7 901 152.3 901 114.2 901C76 901 38 901 19 901L0 901Z" fill="#7b1fa2"></path></svg>